<?xml version="1.0" encoding="UTF-8"?>
<svg id="Layer_1" data-name="Layer 1" xmlns="http://www.w3.org/2000/svg" viewBox="0 0 300 168">
  <defs>
    <style>
      .cls-1 {
        fill: #00b2d9;
      }

      .cls-2 {
        fill: #151515;
      }

      .cls-3 {
        fill: #fb6a55;
      }

      .cls-4 {
        fill: #43aed3;
      }

      .cls-5 {
        fill: #e5f5fc;
      }

      .cls-6 {
        fill: #345164;
      }

      .cls-7 {
        fill: #00a7ce;
      }

      .cls-8 {
        fill: #ffbaa6;
      }

      .cls-9 {
        fill: #fff;
      }

      .cls-10 {
        fill: #0073ab;
      }

      .cls-11 {
        fill: #667c8a;
      }

      .cls-12, .cls-13 {
        fill: #878787;
      }

      .cls-14 {
        fill: #b5e0f5;
      }

      .cls-15 {
        fill: #e1e1e1;
      }

      .cls-16 {
        fill: none;
        stroke: #00a7ce;
        stroke-linecap: round;
        stroke-miterlimit: 10;
        stroke-width: 4.2px;
      }

      .cls-17 {
        fill: #00243f;
      }

      .cls-13 {
        fill-rule: evenodd;
      }

      .cls-18 {
        fill: #cfcfcf;
      }

      .cls-19 {
        fill: #ececec;
      }
    </style>
  </defs>
  <path class="cls-5" d="M300,0H0v112.6h300V0Z"/>
  <path class="cls-14" d="M300,107.16H0v60.84h300v-60.84Z"/>
  <path class="cls-9" d="M158.35,67.78c0,3.47,2.81,6.28,6.28,6.28h24.75c3.47,0,6.28-2.81,6.28-6.28v-19.33h-37.3v19.33Z"/>
  <path class="cls-7" d="M189.37,36.77h-24.75c-3.47,0-6.28,2.81-6.28,6.28v5.42h37.3v-5.42c0-3.47-2.81-6.28-6.28-6.28Z"/>
  <path class="cls-16" d="M167.66,33.31v6.42"/>
  <path class="cls-16" d="M186.34,33.31v6.42"/>
  <path class="cls-15" d="M164.45,51.2h-2.51c-.78,0-1.4.63-1.4,1.4v.93c0,.78.63,1.4,1.4,1.4h2.51c.78,0,1.4-.63,1.4-1.4v-.93c0-.78-.63-1.4-1.4-1.4Z"/>
  <path class="cls-15" d="M171.36,51.2h-2.51c-.78,0-1.4.63-1.4,1.4v.93c0,.78.63,1.4,1.4,1.4h2.51c.78,0,1.4-.63,1.4-1.4v-.93c0-.78-.63-1.4-1.4-1.4Z"/>
  <path class="cls-10" d="M178.26,51.2h-2.51c-.78,0-1.4.63-1.4,1.4v.93c0,.78.63,1.4,1.4,1.4h2.51c.78,0,1.4-.63,1.4-1.4v-.93c0-.78-.63-1.4-1.4-1.4Z"/>
  <path class="cls-10" d="M185.16,51.2h-2.51c-.78,0-1.4.63-1.4,1.4v.93c0,.78.63,1.4,1.4,1.4h2.51c.78,0,1.4-.63,1.4-1.4v-.93c0-.78-.63-1.4-1.4-1.4Z"/>
  <path class="cls-10" d="M192.06,51.2h-2.51c-.78,0-1.4.63-1.4,1.4v.93c0,.78.63,1.4,1.4,1.4h2.51c.78,0,1.4-.63,1.4-1.4v-.93c0-.78-.63-1.4-1.4-1.4Z"/>
  <path class="cls-15" d="M164.45,56.67h-2.51c-.78,0-1.4.63-1.4,1.4v.93c0,.78.63,1.4,1.4,1.4h2.51c.78,0,1.4-.63,1.4-1.4v-.93c0-.78-.63-1.4-1.4-1.4Z"/>
  <path class="cls-15" d="M171.36,56.67h-2.51c-.78,0-1.4.63-1.4,1.4v.93c0,.78.63,1.4,1.4,1.4h2.51c.78,0,1.4-.63,1.4-1.4v-.93c0-.78-.63-1.4-1.4-1.4Z"/>
  <path class="cls-15" d="M178.26,56.67h-2.51c-.78,0-1.4.63-1.4,1.4v.93c0,.78.63,1.4,1.4,1.4h2.51c.78,0,1.4-.63,1.4-1.4v-.93c0-.78-.63-1.4-1.4-1.4Z"/>
  <path class="cls-15" d="M185.16,56.67h-2.51c-.78,0-1.4.63-1.4,1.4v.93c0,.78.63,1.4,1.4,1.4h2.51c.78,0,1.4-.63,1.4-1.4v-.93c0-.78-.63-1.4-1.4-1.4Z"/>
  <path class="cls-15" d="M192.06,56.67h-2.51c-.78,0-1.4.63-1.4,1.4v.93c0,.78.63,1.4,1.4,1.4h2.51c.78,0,1.4-.63,1.4-1.4v-.93c0-.78-.63-1.4-1.4-1.4Z"/>
  <path class="cls-15" d="M164.45,62.85h-2.51c-.78,0-1.4.63-1.4,1.4v.93c0,.78.63,1.4,1.4,1.4h2.51c.78,0,1.4-.63,1.4-1.4v-.93c0-.78-.63-1.4-1.4-1.4Z"/>
  <path class="cls-15" d="M171.36,62.85h-2.51c-.78,0-1.4.63-1.4,1.4v.93c0,.78.63,1.4,1.4,1.4h2.51c.78,0,1.4-.63,1.4-1.4v-.93c0-.78-.63-1.4-1.4-1.4Z"/>
  <path class="cls-15" d="M178.26,62.85h-2.51c-.78,0-1.4.63-1.4,1.4v.93c0,.78.63,1.4,1.4,1.4h2.51c.78,0,1.4-.63,1.4-1.4v-.93c0-.78-.63-1.4-1.4-1.4Z"/>
  <path class="cls-15" d="M185.16,62.85h-2.51c-.78,0-1.4.63-1.4,1.4v.93c0,.78.63,1.4,1.4,1.4h2.51c.78,0,1.4-.63,1.4-1.4v-.93c0-.78-.63-1.4-1.4-1.4Z"/>
  <path class="cls-15" d="M192.06,62.85h-2.51c-.78,0-1.4.63-1.4,1.4v.93c0,.78.63,1.4,1.4,1.4h2.51c.78,0,1.4-.63,1.4-1.4v-.93c0-.78-.63-1.4-1.4-1.4Z"/>
  <path class="cls-17" d="M237.71,95.27v-19.86h8.39l5.38,19.86h-13.77Z"/>
  <path class="cls-1" d="M52.64,130.08h196.69c4.26,0,8.15-2.45,9.98-6.3l9.38-19.68h-49.9c-1.99,0-3.89.8-5.27,2.23l-6.81,7.03h-116.88l-15.78-9.81c-1.36-.85-2.93-1.29-4.53-1.29h-32.06l18.32,19.87c.22,3.44-.65,6.19-3.13,7.96"/>
  <path class="cls-12" d="M234.63,86.14h-10.79v9.12h10.79v-9.12Z"/>
  <path class="cls-18" d="M258.58,104.09v-8.51c0-.78-.63-1.42-1.42-1.42h-34.25c-.78,0-1.42.63-1.42,1.42v8.51"/>
  <path class="cls-18" d="M234.63,83.66h-13.13v1.57c0,.5.41.91.91.91h12.22v-2.48h0Z"/>
  <path class="cls-1" d="M250.09,90.12h-12.38v-10.71h9.48l2.9,10.71Z"/>
  <path class="cls-9" d="M244.24,84.49l1.71-2.14h0s-2.47,1.18-2.47,1.18l-.61-2.67h-.01l-.61,2.67-2.47-1.19h0s1.71,2.15,1.71,2.15l-2.47,1.18h0s2.73.01,2.73.01l-.61,2.67h0s1.71-2.14,1.71-2.14l1.71,2.14h0s-.61-2.67-.61-2.67h2.74s-2.47-1.19-2.47-1.19Z"/>
  <path class="cls-15" d="M149.69,96.57v-14.54c0-.94.74-1.69,1.69-1.69h53.11c.94,0,1.69.74,1.69,1.69v14.54h-56.49Z"/>
  <path class="cls-19" d="M203.1,94.09c.35,0,.6-.25.6-.6v-10.13c0-.35-.25-.6-.6-.6s-.6.25-.6.6v10.13c-.05.35.25.6.6.6"/>
  <path class="cls-19" d="M200.27,94.09c.35,0,.6-.25.6-.6v-10.13c0-.35-.25-.6-.6-.6s-.6.25-.6.6v10.13c0,.35.3.6.6.6"/>
  <path class="cls-19" d="M197.49,94.09c.35,0,.6-.25.6-.6v-10.13c0-.35-.25-.6-.6-.6s-.6.25-.6.6v10.13c0,.35.25.6.6.6"/>
  <path class="cls-19" d="M194.71,94.09c.35,0,.6-.25.6-.6v-10.13c0-.35-.25-.6-.6-.6s-.6.25-.6.6v10.13c0,.35.25.6.6.6"/>
  <path class="cls-19" d="M191.88,94.09c.35,0,.6-.25.6-.6v-10.13c0-.35-.25-.6-.6-.6s-.6.25-.6.6v10.13c0,.35.3.6.6.6"/>
  <path class="cls-19" d="M189.1,94.09c.35,0,.6-.25.6-.6v-10.13c0-.35-.25-.6-.6-.6s-.6.25-.6.6v10.13c0,.35.25.6.6.6"/>
  <path class="cls-19" d="M186.32,94.09c.35,0,.6-.25.6-.6v-10.13c0-.35-.25-.6-.6-.6s-.6.25-.6.6v10.13c0,.35.25.6.6.6"/>
  <path class="cls-19" d="M183.5,94.09c.35,0,.6-.25.6-.6v-10.13c0-.35-.25-.6-.6-.6s-.6.25-.6.6v10.13c0,.35.3.6.6.6"/>
  <path class="cls-19" d="M180.71,94.09c.35,0,.6-.25.6-.6v-10.13c0-.35-.25-.6-.6-.6s-.6.25-.6.6v10.13c0,.35.25.6.6.6"/>
  <path class="cls-19" d="M177.94,94.09c.35,0,.6-.25.6-.6v-10.13c0-.35-.25-.6-.6-.6s-.6.25-.6.6v10.13c0,.35.25.6.6.6"/>
  <path class="cls-19" d="M175.15,94.09c.35,0,.6-.25.6-.6v-10.13c0-.35-.25-.6-.6-.6s-.6.25-.6.6v10.13c-.05.35.25.6.6.6"/>
  <path class="cls-19" d="M172.33,94.09c.35,0,.6-.25.6-.6v-10.13c0-.35-.25-.6-.6-.6s-.6.25-.6.6v10.13c0,.35.3.6.6.6"/>
  <path class="cls-19" d="M169.54,94.09c.35,0,.6-.25.6-.6v-10.13c0-.35-.25-.6-.6-.6s-.6.25-.6.6v10.13c0,.35.25.6.6.6"/>
  <path class="cls-19" d="M166.77,94.09c.35,0,.6-.25.6-.6v-10.13c0-.35-.25-.6-.6-.6s-.6.25-.6.6v10.13c0,.35.25.6.6.6"/>
  <path class="cls-19" d="M163.94,94.09c.35,0,.6-.25.6-.6v-10.13c0-.35-.25-.6-.6-.6s-.6.25-.6.6v10.13c0,.35.3.6.6.6"/>
  <path class="cls-19" d="M161.16,94.09c.35,0,.6-.25.6-.6v-10.13c0-.35-.25-.6-.6-.6s-.6.25-.6.6v10.13c0,.35.25.6.6.6"/>
  <path class="cls-19" d="M158.38,94.09c.35,0,.6-.25.6-.6v-10.13c0-.35-.25-.6-.6-.6s-.6.25-.6.6v10.13c0,.35.25.6.6.6"/>
  <path class="cls-19" d="M155.55,94.09c.35,0,.6-.25.6-.6v-10.13c0-.35-.25-.6-.6-.6s-.6.25-.6.6v10.13c0,.35.3.6.6.6"/>
  <path class="cls-19" d="M152.77,94.09c.35,0,.6-.25.6-.6v-10.13c0-.35-.25-.6-.6-.6s-.6.25-.6.6v10.13c0,.35.3.6.6.6"/>
  <path class="cls-3" d="M90.82,113.35v-14.54c0-.94.74-1.69,1.69-1.69h53.16c.94,0,1.69.74,1.69,1.69v14.54h-56.54Z"/>
  <path class="cls-8" d="M144.23,110.92c.35,0,.6-.25.6-.6v-10.13c0-.35-.25-.6-.6-.6s-.6.25-.6.6v10.13c0,.3.3.6.6.6"/>
  <path class="cls-8" d="M141.45,110.92c.35,0,.6-.25.6-.6v-10.13c0-.35-.25-.6-.6-.6s-.6.25-.6.6v10.13c0,.3.25.6.6.6"/>
  <path class="cls-8" d="M138.67,110.92c.35,0,.6-.25.6-.6v-10.13c0-.35-.25-.6-.6-.6s-.6.25-.6.6v10.13c0,.3.25.6.6.6"/>
  <path class="cls-8" d="M135.84,110.92c.35,0,.6-.25.6-.6v-10.13c0-.35-.25-.6-.6-.6s-.6.25-.6.6v10.13c0,.3.3.6.6.6"/>
  <path class="cls-8" d="M133.06,110.92c.35,0,.6-.25.6-.6v-10.13c0-.35-.25-.6-.6-.6s-.6.25-.6.6v10.13c0,.3.3.6.6.6"/>
  <path class="cls-8" d="M130.28,110.92c.35,0,.6-.25.6-.6v-10.13c0-.35-.25-.6-.6-.6s-.6.25-.6.6v10.13c0,.3.25.6.6.6"/>
  <path class="cls-8" d="M127.5,110.92c.35,0,.6-.25.6-.6v-10.13c0-.35-.25-.6-.6-.6s-.6.25-.6.6v10.13c0,.3.25.6.6.6"/>
  <path class="cls-8" d="M124.68,110.92c.35,0,.6-.25.6-.6v-10.13c0-.35-.25-.6-.6-.6s-.6.25-.6.6v10.13c0,.3.3.6.6.6"/>
  <path class="cls-8" d="M121.89,110.92c.35,0,.6-.25.6-.6v-10.13c0-.35-.25-.6-.6-.6s-.6.25-.6.6v10.13c0,.3.25.6.6.6"/>
  <path class="cls-8" d="M119.12,110.92c.35,0,.6-.25.6-.6v-10.13c0-.35-.25-.6-.6-.6s-.6.25-.6.6v10.13c0,.3.25.6.6.6"/>
  <path class="cls-8" d="M116.28,110.92c.35,0,.6-.25.6-.6v-10.13c0-.35-.25-.6-.6-.6s-.6.25-.6.6v10.13c0,.3.3.6.6.6"/>
  <path class="cls-8" d="M113.51,110.92c.35,0,.6-.25.6-.6v-10.13c0-.35-.25-.6-.6-.6s-.6.25-.6.6v10.13c0,.3.25.6.6.6"/>
  <path class="cls-8" d="M110.72,110.92c.35,0,.6-.25.6-.6v-10.13c0-.35-.25-.6-.6-.6s-.6.25-.6.6v10.13c0,.3.25.6.6.6"/>
  <path class="cls-8" d="M107.95,110.92c.35,0,.6-.25.6-.6v-10.13c0-.35-.25-.6-.6-.6s-.6.25-.6.6v10.13c-.05.3.25.6.6.6"/>
  <path class="cls-8" d="M105.12,110.92c.35,0,.6-.25.6-.6v-10.13c0-.35-.25-.6-.6-.6s-.6.25-.6.6v10.13c0,.3.3.6.6.6"/>
  <path class="cls-8" d="M102.34,110.92c.35,0,.6-.25.6-.6v-10.13c0-.35-.25-.6-.6-.6s-.6.25-.6.6v10.13c0,.3.25.6.6.6"/>
  <path class="cls-8" d="M99.56,110.92c.35,0,.6-.25.6-.6v-10.13c0-.35-.25-.6-.6-.6s-.6.25-.6.6v10.13c0,.3.25.6.6.6"/>
  <path class="cls-8" d="M96.73,110.92c.35,0,.6-.25.6-.6v-10.13c0-.35-.25-.6-.6-.6s-.6.25-.6.6v10.13c0,.3.3.6.6.6"/>
  <path class="cls-8" d="M93.95,110.92c.35,0,.6-.25.6-.6v-10.13c0-.35-.25-.6-.6-.6s-.6.25-.6.6v10.13c0,.3.25.6.6.6"/>
  <path class="cls-6" d="M149.69,113.35v-14.54c0-.94.74-1.69,1.69-1.69h53.11c.94,0,1.69.74,1.69,1.69v14.54h-56.49Z"/>
  <path class="cls-11" d="M203.1,110.92c.35,0,.6-.25.6-.6v-10.13c0-.35-.25-.6-.6-.6s-.6.25-.6.6v10.13c-.05.3.25.6.6.6"/>
  <path class="cls-11" d="M200.27,110.92c.35,0,.6-.25.6-.6v-10.13c0-.35-.25-.6-.6-.6s-.6.25-.6.6v10.13c0,.3.3.6.6.6"/>
  <path class="cls-11" d="M197.49,110.92c.35,0,.6-.25.6-.6v-10.13c0-.35-.25-.6-.6-.6s-.6.25-.6.6v10.13c0,.3.25.6.6.6"/>
  <path class="cls-11" d="M194.71,110.92c.35,0,.6-.25.6-.6v-10.13c0-.35-.25-.6-.6-.6s-.6.25-.6.6v10.13c0,.3.25.6.6.6"/>
  <path class="cls-11" d="M191.88,110.92c.35,0,.6-.25.6-.6v-10.13c0-.35-.25-.6-.6-.6s-.6.25-.6.6v10.13c0,.3.3.6.6.6"/>
  <path class="cls-11" d="M189.1,110.92c.35,0,.6-.25.6-.6v-10.13c0-.35-.25-.6-.6-.6s-.6.25-.6.6v10.13c0,.3.25.6.6.6"/>
  <path class="cls-11" d="M186.32,110.92c.35,0,.6-.25.6-.6v-10.13c0-.35-.25-.6-.6-.6s-.6.25-.6.6v10.13c0,.3.25.6.6.6"/>
  <path class="cls-11" d="M183.5,110.92c.35,0,.6-.25.6-.6v-10.13c0-.35-.25-.6-.6-.6s-.6.25-.6.6v10.13c0,.3.3.6.6.6"/>
  <path class="cls-11" d="M180.71,110.92c.35,0,.6-.25.6-.6v-10.13c0-.35-.25-.6-.6-.6s-.6.25-.6.6v10.13c0,.3.25.6.6.6"/>
  <path class="cls-11" d="M177.94,110.92c.35,0,.6-.25.6-.6v-10.13c0-.35-.25-.6-.6-.6s-.6.25-.6.6v10.13c0,.3.25.6.6.6"/>
  <path class="cls-11" d="M175.15,110.92c.35,0,.6-.25.6-.6v-10.13c0-.35-.25-.6-.6-.6s-.6.25-.6.6v10.13c-.05.3.25.6.6.6"/>
  <path class="cls-11" d="M172.33,110.92c.35,0,.6-.25.6-.6v-10.13c0-.35-.25-.6-.6-.6s-.6.25-.6.6v10.13c0,.3.3.6.6.6"/>
  <path class="cls-11" d="M169.54,110.92c.35,0,.6-.25.6-.6v-10.13c0-.35-.25-.6-.6-.6s-.6.25-.6.6v10.13c0,.3.25.6.6.6"/>
  <path class="cls-11" d="M166.77,110.92c.35,0,.6-.25.6-.6v-10.13c0-.35-.25-.6-.6-.6s-.6.25-.6.6v10.13c0,.3.25.6.6.6"/>
  <path class="cls-11" d="M163.94,110.92c.35,0,.6-.25.6-.6v-10.13c0-.35-.25-.6-.6-.6s-.6.25-.6.6v10.13c0,.3.3.6.6.6"/>
  <path class="cls-11" d="M161.16,110.92c.35,0,.6-.25.6-.6v-10.13c0-.35-.25-.6-.6-.6s-.6.25-.6.6v10.13c0,.3.25.6.6.6"/>
  <path class="cls-11" d="M158.38,110.92c.35,0,.6-.25.6-.6v-10.13c0-.35-.25-.6-.6-.6s-.6.25-.6.6v10.13c0,.3.25.6.6.6"/>
  <path class="cls-11" d="M155.55,110.92c.35,0,.6-.25.6-.6v-10.13c0-.35-.25-.6-.6-.6s-.6.25-.6.6v10.13c0,.3.3.6.6.6"/>
  <path class="cls-11" d="M152.77,110.92c.35,0,.6-.25.6-.6v-10.13c0-.35-.25-.6-.6-.6s-.6.25-.6.6v10.13c0,.3.3.6.6.6"/>
  <path class="cls-2" d="M171.08,90.1v-3.43h.89l1.19,2.58,1.14-2.58h.84v3.43h-.74v-1.99l-.84,1.99h-.85l-.85-1.99v1.99h-.79Z"/>
  <path class="cls-2" d="M176.4,90.1h-.89l1.54-3.42h1.09l1.54,3.42h-.89l-.3-.69h-1.78l-.3.69h0ZM178.18,88.81l-.65-1.44-.6,1.44h1.24Z"/>
  <path class="cls-2" d="M180.02,90.1v-3.43h3.28v.69h-2.48v.69h2.13v.65h-2.13v.75h2.48v.65h-3.28Z"/>
  <path class="cls-2" d="M183.94,90.1v-3.42h2.73c.35,0,.6.2.6.6v1.14c0,.25-.25.5-.69.5h-.1l.79,1.19h-.89l-.74-1.19h-.89v1.19h-.79ZM184.73,88.26h1.74v-.9h-1.74v.9Z"/>
  <path class="cls-2" d="M188.71,90.1h-.25c-.35,0-.55-.2-.55-.5v-.44h.79v.25h1.69v-.69h-1.94c-.3,0-.55-.2-.55-.5v-1.04c0-.3.25-.55.55-.55h2.23c.3,0,.5.25.5.55v.4h-.79v-.25h-1.69v.69h1.94c.3,0,.55.2.55.55v.99c0,.35-.2.55-.55.55h-1.94Z"/>
  <path class="cls-2" d="M191.98,90.1v-3.43h.79v1.39l1.54-1.39h1.14l-1.88,1.59,1.93,1.84h-1.14l-1.59-1.54v1.54h-.79Z"/>
  <path class="cls-4" d="M167.81,91.44c0,.5-.4.89-.89.89h-5.61c-.5,0-.9-.4-.9-.89v-6c0-.5.4-.89.9-.89h5.61c.5,0,.89.4.89.89v6Z"/>
  <path class="cls-9" d="M165.28,88.21l1.44-1.84-2.09.99-.54-2.28-.55,2.28-2.08-.99,1.44,1.84-2.08.99h2.33l-.5,2.28,1.44-1.79,1.44,1.79h.05l-.54-2.28h2.33l-2.09-.99Z"/>
  <path class="cls-15" d="M90.84,96.57v-14.54c0-.94.74-1.69,1.69-1.69h53.11c.94,0,1.69.74,1.69,1.69v14.54h-56.49Z"/>
  <path class="cls-19" d="M144.26,94.09c.35,0,.6-.25.6-.6v-10.13c0-.35-.25-.6-.6-.6s-.6.25-.6.6v10.13c-.05.35.25.6.6.6"/>
  <path class="cls-19" d="M141.43,94.09c.35,0,.6-.25.6-.6v-10.13c0-.35-.25-.6-.6-.6s-.6.25-.6.6v10.13c0,.35.3.6.6.6"/>
  <path class="cls-19" d="M138.65,94.09c.35,0,.6-.25.6-.6v-10.13c0-.35-.25-.6-.6-.6s-.6.25-.6.6v10.13c0,.35.25.6.6.6"/>
  <path class="cls-19" d="M135.87,94.09c.35,0,.6-.25.6-.6v-10.13c0-.35-.25-.6-.6-.6s-.6.25-.6.6v10.13c0,.35.25.6.6.6"/>
  <path class="cls-19" d="M133.04,94.09c.35,0,.6-.25.6-.6v-10.13c0-.35-.25-.6-.6-.6s-.6.25-.6.6v10.13c0,.35.3.6.6.6"/>
  <path class="cls-19" d="M130.26,94.09c.35,0,.6-.25.6-.6v-10.13c0-.35-.25-.6-.6-.6s-.6.25-.6.6v10.13c0,.35.25.6.6.6"/>
  <path class="cls-19" d="M127.48,94.09c.35,0,.6-.25.6-.6v-10.13c0-.35-.25-.6-.6-.6s-.6.25-.6.6v10.13c0,.35.25.6.6.6"/>
  <path class="cls-19" d="M124.65,94.09c.35,0,.6-.25.6-.6v-10.13c0-.35-.25-.6-.6-.6s-.6.25-.6.6v10.13c0,.35.3.6.6.6"/>
  <path class="cls-19" d="M121.87,94.09c.35,0,.6-.25.6-.6v-10.13c0-.35-.25-.6-.6-.6s-.6.25-.6.6v10.13c0,.35.25.6.6.6"/>
  <path class="cls-19" d="M119.09,94.09c.35,0,.6-.25.6-.6v-10.13c0-.35-.25-.6-.6-.6s-.6.25-.6.6v10.13c0,.35.25.6.6.6"/>
  <path class="cls-19" d="M116.31,94.09c.35,0,.6-.25.6-.6v-10.13c0-.35-.25-.6-.6-.6s-.6.25-.6.6v10.13c-.05.35.25.6.6.6"/>
  <path class="cls-19" d="M113.48,94.09c.35,0,.6-.25.6-.6v-10.13c0-.35-.25-.6-.6-.6s-.6.25-.6.6v10.13c0,.35.3.6.6.6"/>
  <path class="cls-19" d="M110.7,94.09c.35,0,.6-.25.6-.6v-10.13c0-.35-.25-.6-.6-.6s-.6.25-.6.6v10.13c0,.35.25.6.6.6"/>
  <path class="cls-19" d="M107.92,94.09c.35,0,.6-.25.6-.6v-10.13c0-.35-.25-.6-.6-.6s-.6.25-.6.6v10.13c0,.35.25.6.6.6"/>
  <path class="cls-19" d="M105.09,94.09c.35,0,.6-.25.6-.6v-10.13c0-.35-.25-.6-.6-.6s-.6.25-.6.6v10.13c0,.35.3.6.6.6"/>
  <path class="cls-19" d="M102.31,94.09c.35,0,.6-.25.6-.6v-10.13c0-.35-.25-.6-.6-.6s-.6.25-.6.6v10.13c0,.35.25.6.6.6"/>
  <path class="cls-19" d="M99.53,94.09c.35,0,.6-.25.6-.6v-10.13c0-.35-.25-.6-.6-.6s-.6.25-.6.6v10.13c0,.35.25.6.6.6"/>
  <path class="cls-19" d="M96.7,94.09c.35,0,.6-.25.6-.6v-10.13c0-.35-.25-.6-.6-.6s-.6.25-.6.6v10.13c0,.35.3.6.6.6"/>
  <path class="cls-19" d="M93.92,94.09c.35,0,.6-.25.6-.6v-10.13c0-.35-.25-.6-.6-.6s-.6.25-.6.6v10.13c0,.35.3.6.6.6"/>
  <path class="cls-2" d="M112.24,90.1v-3.43h.89l1.19,2.58,1.14-2.58h.85v3.43h-.75v-1.99l-.84,1.99h-.85l-.84-1.99v1.99h-.8Z"/>
  <path class="cls-2" d="M117.55,90.1h-.89l1.54-3.42h1.09l1.54,3.42h-.9l-.3-.69h-1.78l-.3.69h0ZM119.33,88.81l-.65-1.44-.6,1.44h1.24Z"/>
  <path class="cls-2" d="M121.17,90.1v-3.43h3.28v.69h-2.48v.69h2.13v.65h-2.13v.75h2.48v.65h-3.28Z"/>
  <path class="cls-2" d="M125.09,90.1v-3.42h2.73c.35,0,.6.2.6.6v1.14c0,.25-.25.5-.69.5h-.1l.79,1.19h-.9l-.74-1.19h-.89v1.19h-.79ZM125.88,88.26h1.74v-.9h-1.74v.9Z"/>
  <path class="cls-2" d="M129.86,90.1h-.25c-.35,0-.55-.2-.55-.5v-.44h.79v.25h1.69v-.69h-1.94c-.3,0-.55-.2-.55-.5v-1.04c0-.3.25-.55.55-.55h2.23c.3,0,.5.25.5.55v.4h-.79v-.25h-1.69v.69h1.94c.3,0,.55.2.55.55v.99c0,.35-.2.55-.55.55h-1.94Z"/>
  <path class="cls-2" d="M133.14,90.1v-3.43h.79v1.39l1.54-1.39h1.14l-1.89,1.59,1.94,1.84h-1.14l-1.59-1.54v1.54h-.79Z"/>
  <path class="cls-4" d="M108.96,91.44c0,.5-.4.89-.89.89h-5.61c-.5,0-.9-.4-.9-.89v-6c0-.5.4-.89.9-.89h5.61c.5,0,.89.4.89.89v6Z"/>
  <path class="cls-9" d="M106.43,88.21l1.44-1.84-2.08.99-.55-2.28-.55,2.28-2.08-.99,1.44,1.84-2.08.99h2.33l-.49,2.28,1.44-1.79,1.44,1.79h.05l-.54-2.28h2.33l-2.08-.99Z"/>
  <path class="cls-9" d="M121.01,76.55h26.65c1.84,0,3.33-1.49,3.33-3.33v-28.88l-11.11-10h-18.88c-1.84,0-3.33,1.49-3.33,3.33v35.54c0,1.84,1.49,3.33,3.33,3.33h0Z"/>
  <path class="cls-18" d="M143.23,44.34h7.77l-11.11-10v6.67c0,1.84,1.49,3.33,3.33,3.33h0Z"/>
  <path class="cls-13" d="M143.23,57.67h-17.77v-2.22h17.77v2.22Z"/>
  <path class="cls-13" d="M143.23,64.34h-17.77v-2.22h17.77v2.22Z"/>
  <path class="cls-13" d="M134.89,51.01h-9.44v-2.22h9.44v2.22Z"/>
  <path class="cls-12" d="M149.19,61.73l1-1.75c.21-.37.08-.85-.29-1.06l-1.07-.61c-.37-.21-.85-.08-1.06.29l-1,1.75,2.42,1.38h0Z"/>
  <path class="cls-12" d="M140.16,71.91l-.81,1.42c-.08.14-.11.3-.1.46l.18,1.92c.01.14.13.21.26.15l1.74-.82c.15-.07.27-.18.34-.32l.81-1.42-2.42-1.38h0Z"/>
  <path class="cls-12" d="M146.31,61.15l-5.76,10.09,2.43,1.39,5.76-10.09-2.43-1.39Z"/>
</svg>