<?xml version="1.0" encoding="UTF-8"?>
<svg id="Layer_1" xmlns="http://www.w3.org/2000/svg" xmlns:xlink="http://www.w3.org/1999/xlink" version="1.1" viewBox="0 0 300 168">
  <!-- Generator: Adobe Illustrator 29.2.1, SVG Export Plug-In . SVG Version: 2.1.0 Build 116)  -->
  <defs>
    <style>
      .st0, .st1 {
        fill: none;
      }

      .st2 {
        fill: #ffeccc;
      }

      .st3 {
        fill: #545454;
      }

      .st4 {
        fill: #fb6a55;
      }

      .st5 {
        fill: #f7ba83;
      }

      .st6 {
        fill: #a0d7ea;
      }

      .st1 {
        stroke: #cfcfcf;
        stroke-linecap: round;
        stroke-miterlimit: 10;
        stroke-width: 6.78px;
      }

      .st7 {
        fill: #00243d;
      }

      .st8 {
        fill: #fff;
      }

      .st9 {
        fill: #49c4e3;
      }

      .st10 {
        fill: #878787;
      }

      .st11 {
        fill: #f7f7f7;
      }

      .st12 {
        fill: #0073ab;
        fill-opacity: .2;
      }

      .st13 {
        fill: #fbd4c2;
      }

      .st14 {
        fill: #03253d;
      }

      .st15 {
        fill: #b5e0f5;
        fill-opacity: .3;
      }

      .st16 {
        clip-path: url(#clippath);
      }

      .st17 {
        fill: #cfcfcf;
      }
    </style>
    <clipPath id="clippath">
      <rect class="st0" width="300" height="168"/>
    </clipPath>
  </defs>
  <g class="st16">
    <g>
      <rect class="st0" x="47.56" width="254.09" height="169.4"/>
      <path class="st8" d="M-4.61,0h306.27v164.35c0,1.67-1.63,3.02-3.65,3.02H-.97c-2.01,0-3.65-1.35-3.65-3.02V0Z"/>
      <path class="st15" d="M-1.63-2.17h303.29v166.48c0,1.69-1.62,3.06-3.61,3.06H1.98c-1.99,0-3.61-1.37-3.61-3.06V-2.17Z"/>
      <path class="st11" d="M-1.63,126.54h311.35v42.85H-1.63v-42.85Z"/>
      <path class="st8" d="M-1.63,94.78h303.29v31.76H-1.63v-31.76Z"/>
      <path class="st12" d="M-1.64,94.78h303.29v31.76H-1.64v-31.76Z"/>
      <path class="st7" d="M129.45,150.18v5.27c0,.59.48,1.07,1.07,1.07h15.59c1.11,0,1.49-1.48.51-2.01l-11.65-6.37-5.53,2.05Z"/>
      <path class="st13" d="M132.27,152.15l-2.83-1.97-1.93-5.85,6.11-1.78,1.36,5.58,4.41,2.41-5.16,1.86c-.65.23-1.38.14-1.95-.26h0Z"/>
      <path class="st7" d="M114.94,150.18v5.27c0,.59.48,1.07,1.07,1.07h15.6c1.11,0,1.49-1.48.51-2.01l-11.65-6.37-5.53,2.05Z"/>
      <path class="st13" d="M124.88,150.55l-5.16,1.86c-.65.23-1.38.14-1.95-.26l-2.83-1.97-.04-6.4,7.54-1.61-1.05,5.78"/>
      <path class="st10" d="M119.96,106.9l-20.03-.6-4.07-1.84-20.29-.59,5.52,10.2,2.64,5.06,31.89,1.97"/>
      <path class="st3" d="M124.34,110.2l11.34,35.31-8.17,1.46-11.89-25.87,8.72-10.9Z"/>
      <path class="st1" d="M68.81,156.02l10.33-31.18c.57-1.72,2.17-2.88,3.98-2.88h14.35"/>
      <path class="st4" d="M74.79,67.75l8.96,1.14,6.03,6.76c1.02,1.14,1.6,2.62,1.63,4.15l.12,5.85,4.33,18.81-19.69.52-1.38-1.11-1.16-2.7s.22-1.62-.25-4.11c-.36-1.96-3.05-13.83-4.12-18.55-.28-1.23-.04-2.52.67-3.57l4.85-7.19"/>
      <path class="st13" d="M91.07,55.14l1.26,4.24-1.45.68c-.88,5.05-2.75,5.15-5.93,4.85l-1.13,3.14,1.24,6.11-10.26-6.43,3.21-7.39,4.67-11.95,5.21-2.88c2.3,1.31,3.63,3.95,3.32,8.07l-.13,1.53h0Z"/>
      <path class="st14" d="M72.87,56.93c-.46,5.29,2.23,7.22,4.53,7.43,1.82.16,3.61-1.3,4.01-5.78-1.5-.13-1.76-.64-1.64-2l.11-1.15,10.95-6.06c-.43-4.13-4.5-5.09-8.33-5.42-8.34-.73-9.59,3.79-10.18,10.55"/>
      <path class="st13" d="M110.52,105.17l-.09.39-13.07.04-17.21-6.95c-1.16-.47-2.2-1.57-2.65-2.56l6.69-3.1,15.09,9.38,3.53-.63c.37-.06.75-.04,1.1.09l5.93,2.07c.53.18.83.74.7,1.28h0Z"/>
      <path class="st1" d="M113.01,156.02l-10.33-31.18c-.57-1.72-2.17-2.88-3.98-2.88h-7.18"/>
      <path class="st10" d="M114.05,106.82l7.05.09c4.03.05,7.06,3.71,6.34,7.68l-5.8,32.01-7.89-1.14v-24.42l-11.49-1.01,4.16-11.09,7.62-2.14Z"/>
      <path class="st9" d="M112.79,118.03l.97,3.02h-35.96c-4,0-7.41-2.9-8.04-6.85l-6.51-40.5,1.52-.3c1.83-.37,3.65.72,4.19,2.51l10.23,33.96,30.36,5.46c1.48.27,2.71,1.3,3.24,2.71h0Z"/>
      <path class="st17" d="M97.29,105.59h28.75v.92c0,.27-.22.49-.49.49h-27.76c-.27,0-.49-.22-.49-.49v-.92h0Z"/>
      <path class="st17" d="M127.68,104.93l6.89-25.71c.15-.57-.18-1.15-.75-1.3l-.34-.09-7.44,27.77.34.09c.57.15,1.15-.18,1.3-.75Z"/>
      <path class="st14" d="M87.96,55.45c.03-.33.33-.58.66-.54l.87.09c.33.03.58.33.54.66"/>
      <path class="st8" d="M279.69,23.03c0-1.72-1.26-4.88-7-4.88s-7.21,3.07-7.21,5.02c-4.4,0-7.24,2.25-7.84,5.87h30.02c-.76-2.95-2.44-6.01-7.97-6.01Z"/>
      <path class="st8" d="M255.06,39.83h-58.59c0-2.83,1.42-5.45,5.7-5.45h2.08c0-2.82,2.99-6.26,10.6-6.26h7.89c0-3.74,1.9-6.46,9.81-6.46,10.87,0,11.18,5.23,11.18,10.91,11.49,0,11.33,7.26,11.33,7.26Z"/>
      <path class="st5" d="M225.56,113.22h38.58v-38.58h-38.58v38.58Z"/>
      <path class="st2" d="M240.46,83.42l4.38-2.68,4.39,2.68v-8.77h-8.77v8.77Z"/>
      <path class="st5" d="M203.85,156.46h38.58v-38.58h-38.58v38.58Z"/>
      <path class="st5" d="M247.29,156.46h38.58v-38.58h-38.58v38.58Z"/>
      <path class="st2" d="M218.74,126.66l4.39-2.68,4.38,2.68v-8.77h-8.77v8.77Z"/>
      <path class="st2" d="M262.94,126.66l4.39-2.68,4.39,2.68v-8.77s-8.77,0-8.77,0v8.77Z"/>
      <path class="st8" d="M179.81,19.07h-70.68c-2.54,0-4.6,2.06-4.6,4.6v33.91c0,2.54,2.06,4.6,4.6,4.6h70.68c2.54,0,4.6-2.06,4.6-4.6V23.67c0-2.54-2.06-4.6-4.6-4.6Z"/>
      <path class="st4" d="M113.8,48.77h16.28v-16.28h-16.28v16.28Z"/>
      <path class="st6" d="M137.03,34.62h37.64v-2.13h-37.64v2.13Z"/>
      <path class="st6" d="M137.03,41.69h37.64v-2.13h-37.64v2.13Z"/>
      <path class="st6" d="M136.82,48.77h37.64v-2.13h-37.64v2.13Z"/>
    </g>
  </g>
</svg>