<?xml version="1.0" encoding="UTF-8"?>
<svg id="Layer_1" xmlns="http://www.w3.org/2000/svg" xmlns:xlink="http://www.w3.org/1999/xlink" version="1.1" viewBox="0 0 300 168">
  <!-- Generator: Adobe Illustrator 29.2.1, SVG Export Plug-In . SVG Version: 2.1.0 Build 116)  -->
  <defs>
    <style>
      .st0 {
        fill: none;
      }

      .st1 {
        fill: #00b2d9;
      }

      .st2 {
        fill: #545454;
      }

      .st3 {
        fill: #e2e2e2;
      }

      .st4 {
        fill: #d9dee2;
      }

      .st5 {
        fill: #ccedfb;
      }

      .st6 {
        fill: #fff;
      }

      .st7 {
        fill: #f7f7f7;
      }

      .st8 {
        fill: #00243d;
        fill-opacity: .6;
      }

      .st9 {
        fill-opacity: .2;
      }

      .st9, .st10 {
        fill: #0073ab;
      }

      .st10 {
        fill-opacity: .4;
      }

      .st11 {
        fill: #b5e0f5;
        fill-opacity: .3;
      }

      .st12 {
        fill: #313131;
      }

      .st13 {
        fill: #ededed;
      }

      .st14 {
        fill: #cfcfcf;
      }
    </style>
  </defs>
  <rect class="st0" x="70" y=".02" width="167.98" height="167.98"/>
  <g>
    <rect class="st7" x="70" y=".02" width="167.98" height="167.98"/>
    <path class="st6" d="M70,.02h167.98v164.62c0,1.86-1.5,3.36-3.36,3.36H73.36c-1.86,0-3.36-1.5-3.36-3.36V.02Z"/>
    <path class="st11" d="M0,.02h300v164.62c0,1.86-2.69,3.36-6,3.36H6c-3.31,0-6-1.5-6-3.36V.02Z"/>
    <path class="st13" d="M0,103.05h300v64.95H0v-64.95Z"/>
    <path class="st6" d="M90.98,43.11v-17.33h-7.33l-4.7,17.33h12.02Z"/>
    <path class="st8" d="M90.98,43.11v-17.33h-7.33l-4.7,17.33h12.02Z"/>
    <path class="st6" d="M145.74,54.44v-6.44c0-.1.02-.19.06-.28.04-.09.09-.17.16-.24.07-.07.15-.12.24-.16.09-.04.19-.06.28-.05h23.51c.2,0,.38.08.52.22.14.14.22.33.22.52v6.44h-25Z"/>
    <path class="st8" d="M145.74,54.44v-6.44c0-.1.02-.19.06-.28.04-.09.09-.17.16-.24.07-.07.15-.12.24-.16.09-.04.19-.06.28-.05h23.51c.2,0,.38.08.52.22.14.14.22.33.22.52v6.44h-25Z"/>
    <path class="st6" d="M145.74,46.5v-6.44c0-.2.08-.38.22-.52.14-.14.33-.22.52-.22h23.51c.2,0,.38.08.52.22.14.14.22.33.22.52v6.44h-25Z"/>
    <path class="st8" d="M145.74,46.5v-6.44c0-.2.08-.38.22-.52.14-.14.33-.22.52-.22h23.51c.2,0,.38.08.52.22.14.14.22.33.22.52v6.44h-25Z"/>
    <path class="st6" d="M145.74,38.57v-6.44c0-.2.08-.38.22-.52.14-.14.33-.22.52-.22h23.51c.2,0,.38.08.52.22.14.14.22.33.22.52v6.44h-25Z"/>
    <path class="st8" d="M145.74,38.57v-6.44c0-.2.08-.38.22-.52.14-.14.33-.22.52-.22h23.51c.2,0,.38.08.52.22.14.14.22.33.22.52v6.44h-25Z"/>
    <path class="st6" d="M119.85,62.37v-6.44c0-.2.08-.38.22-.52.14-.14.33-.22.52-.22h23.51c.2,0,.39.08.52.22.14.14.22.33.22.52v6.44h-25Z"/>
    <path class="st8" d="M119.85,62.37v-6.44c0-.2.08-.38.22-.52.14-.14.33-.22.52-.22h23.51c.2,0,.39.08.52.22.14.14.22.33.22.52v6.44h-25Z"/>
    <path class="st6" d="M119.85,54.44v-6.44c0-.2.08-.38.22-.52.14-.14.33-.22.52-.22h23.51c.1,0,.19.02.28.05.09.04.17.09.24.16.07.07.12.15.16.24.04.09.06.19.06.28v6.44h-25Z"/>
    <path class="st8" d="M119.85,54.44v-6.44c0-.2.08-.38.22-.52.14-.14.33-.22.52-.22h23.51c.1,0,.19.02.28.05.09.04.17.09.24.16.07.07.12.15.16.24.04.09.06.19.06.28v6.44h-25Z"/>
    <path class="st6" d="M145.74,62.37v-6.44c0-.2.08-.38.22-.52.14-.14.33-.22.52-.22h23.51c.2,0,.38.08.52.22.14.14.22.33.22.52v6.44h-25Z"/>
    <path class="st8" d="M145.74,62.37v-6.44c0-.2.08-.38.22-.52.14-.14.33-.22.52-.22h23.51c.2,0,.38.08.52.22.14.14.22.33.22.52v6.44h-25Z"/>
    <path class="st6" d="M171.66,54.44v-6.44c0-.1.02-.19.05-.28.04-.09.09-.17.16-.24.07-.07.15-.12.24-.16.09-.04.19-.06.28-.05h23.49c.2,0,.38.08.52.22.14.14.22.33.22.52v6.44h-24.97Z"/>
    <path class="st8" d="M171.66,54.44v-6.44c0-.1.02-.19.05-.28.04-.09.09-.17.16-.24.07-.07.15-.12.24-.16.09-.04.19-.06.28-.05h23.49c.2,0,.38.08.52.22.14.14.22.33.22.52v6.44h-24.97Z"/>
    <path class="st6" d="M197.53,54.44v-6.44c0-.2.08-.38.22-.52.14-.14.33-.22.52-.22h23.51c.2,0,.38.08.52.22.14.14.22.33.22.52v6.44h-24.99Z"/>
    <path class="st8" d="M197.53,54.44v-6.44c0-.2.08-.38.22-.52.14-.14.33-.22.52-.22h23.51c.2,0,.38.08.52.22.14.14.22.33.22.52v6.44h-24.99Z"/>
    <path class="st6" d="M171.66,46.5v-6.44c0-.2.08-.38.22-.52.14-.14.33-.22.52-.22h23.49c.2,0,.38.08.52.22.14.14.22.33.22.52v6.44h-24.97Z"/>
    <path class="st8" d="M171.66,46.5v-6.44c0-.2.08-.38.22-.52.14-.14.33-.22.52-.22h23.49c.2,0,.38.08.52.22.14.14.22.33.22.52v6.44h-24.97Z"/>
    <path class="st6" d="M171.66,62.37v-6.44c0-.2.08-.38.22-.52.14-.14.33-.22.52-.22h23.49c.2,0,.38.08.52.22.14.14.22.33.22.52v6.44h-24.97Z"/>
    <path class="st8" d="M171.66,62.37v-6.44c0-.2.08-.38.22-.52.14-.14.33-.22.52-.22h23.49c.2,0,.38.08.52.22.14.14.22.33.22.52v6.44h-24.97Z"/>
    <path class="st6" d="M197.53,62.37v-6.44c0-.2.08-.38.22-.52.14-.14.33-.22.52-.22h23.51c.2,0,.38.08.52.22.14.14.22.33.22.52v6.44h-24.99Z"/>
    <path class="st8" d="M197.53,62.37v-6.44c0-.2.08-.38.22-.52.14-.14.33-.22.52-.22h23.51c.2,0,.38.08.52.22.14.14.22.33.22.52v6.44h-24.99Z"/>
    <path class="st14" d="M93.66,43.12h9.42v-7.96h-9.42v7.96Z"/>
    <path class="st14" d="M72.75,50.82v-7.41c0-.33.13-.64.36-.87.23-.23.55-.36.87-.36h29.9c.33,0,.64.13.87.36.23.23.36.55.36.87v7.42h-32.37Z"/>
    <path class="st14" d="M104.31,35.15h-10.67v-2.16h11.48v1.37c0,.11-.02.21-.06.31-.04.1-.1.19-.18.26-.08.07-.16.13-.26.17-.1.04-.2.06-.31.06Z"/>
    <path class="st6" d="M80.17,38.62h10.81v-9.35h-8.27l-2.54,9.35Z"/>
    <path class="st10" d="M80.17,38.62h10.81v-9.35h-8.27l-2.54,9.35Z"/>
    <path class="st6" d="M85.27,33.71l-1.49-1.87h0s2.16,1.03,2.16,1.03l.53-2.33h0l.53,2.33,2.16-1.04h0s-1.49,1.88-1.49,1.88l2.15,1.04h0s-2.39,0-2.39,0l.53,2.33h0s-1.49-1.87-1.49-1.87l-1.49,1.87h0s.53-2.33.53-2.33h-2.39s2.15-1.04,2.15-1.04Z"/>
    <path class="st6" d="M113.76,51.06c0,2.16.02,6.5.02,8.51,0,2.72,3.33,2.78,3.33,2.78h104.79c6.32,0,7.88-6.08,8.25-8.39.06-.27.22-.51.44-.67.23-.16.51-.23.78-.19l42.26.06-16.61,16.45c4.37,1.73,6.68,5.44,6.68,10.22H78.05c0-11.61-9.48-9.31-9.73-30.05h44.22c.96,0,1.21.5,1.22,1.27"/>
    <path class="st10" d="M113.76,51.06c0,2.16.02,6.5.02,8.51,0,2.72,3.33,2.78,3.33,2.78h104.79c6.32,0,7.88-6.08,8.25-8.39.06-.27.22-.51.44-.67.23-.16.51-.23.78-.19l42.26.06-16.61,16.45c4.37,1.73,6.68,5.44,6.68,10.22H78.05c0-11.61-9.48-9.31-9.73-30.05h44.22c.96,0,1.21.5,1.22,1.27"/>
    <path class="st6" d="M70,79.53h167.98v23.52H70v-23.52Z"/>
    <path class="st9" d="M0,79.53h300v23.52H0v-23.52Z"/>
    <path class="st6" d="M239.14,23.54h-33.24c0-1.6.81-3.09,3.23-3.09h1.18c0-1.6,1.7-3.55,6.01-3.55h4.47c0-2.12,1.07-3.66,5.57-3.66,6.17,0,6.34,2.96,6.34,6.19,6.52,0,6.43,4.12,6.43,4.12Z"/>
    <path class="st2" d="M182.35,114.65H14.57v10.85h167.78v-10.85Z"/>
    <path class="st1" d="M229.79,99.35l-9.09-19.41c-.25-.53-.64-.97-1.14-1.29s-1.07-.48-1.66-.48h-32.43c-.82,0-1.6.33-2.18.9-.58.57-.9,1.35-.91,2.16v47.92h16.12c.27-10.95,3.9-13.74,12.47-13.74s12.05,2.75,12.34,13.74h3.74c.82,0,1.6-.33,2.18-.9.58-.58.9-1.35.9-2.16v-25.45c-.02-.45-.14-.89-.35-1.29Z"/>
    <path class="st7" d="M176.65,114.65v-40.24c0-.61-.12-1.21-.35-1.77-.23-.56-.58-1.07-1.01-1.5-.43-.43-.95-.77-1.51-1-.57-.23-1.17-.35-1.78-.35H23.67c-.61,0-1.22.12-1.79.35-.57.23-1.08.57-1.52,1-.43.43-.78.94-1.01,1.5-.23.56-.35,1.16-.35,1.77v40.24h157.64Z"/>
    <path class="st3" d="M75.53,76.57h-2.17c-.32,0-.59.26-.59.58v30.13c0,.32.26.58.59.58h2.17c.32,0,.59-.26.59-.58v-30.13c0-.32-.26-.58-.59-.58Z"/>
    <path class="st3" d="M83.33,76.57h-2.17c-.32,0-.59.26-.59.58v30.13c0,.32.26.58.59.58h2.17c.32,0,.59-.26.59-.58v-30.13c0-.32-.26-.58-.59-.58Z"/>
    <path class="st3" d="M91.12,76.57h-2.17c-.32,0-.59.26-.59.58v30.13c0,.32.26.58.59.58h2.17c.32,0,.59-.26.59-.58v-30.13c0-.32-.26-.58-.59-.58Z"/>
    <path class="st3" d="M98.92,76.57h-2.17c-.32,0-.59.26-.59.58v30.13c0,.32.26.58.59.58h2.17c.32,0,.59-.26.59-.58v-30.13c0-.32-.26-.58-.59-.58Z"/>
    <path class="st3" d="M106.72,76.57h-2.17c-.32,0-.59.26-.59.58v30.13c0,.32.26.58.59.58h2.17c.32,0,.59-.26.59-.58v-30.13c0-.32-.26-.58-.59-.58Z"/>
    <path class="st3" d="M35.53,76.57h-2.17c-.32,0-.59.26-.59.58v30.13c0,.32.26.58.59.58h2.17c.32,0,.59-.26.59-.58v-30.13c0-.32-.26-.58-.59-.58Z"/>
    <path class="st3" d="M27.53,76.57h-2.17c-.32,0-.59.26-.59.58v30.13c0,.32.26.58.59.58h2.17c.32,0,.59-.26.59-.58v-30.13c0-.32-.26-.58-.59-.58Z"/>
    <path class="st3" d="M43.33,76.57h-2.17c-.32,0-.59.26-.59.58v30.13c0,.32.26.58.59.58h2.17c.32,0,.59-.26.59-.58v-30.13c0-.32-.26-.58-.59-.58Z"/>
    <path class="st3" d="M51.12,76.57h-2.17c-.32,0-.59.26-.59.58v30.13c0,.32.26.58.59.58h2.17c.32,0,.59-.26.59-.58v-30.13c0-.32-.26-.58-.59-.58Z"/>
    <path class="st3" d="M58.92,76.57h-2.17c-.32,0-.59.26-.59.58v30.13c0,.32.26.58.59.58h2.17c.32,0,.59-.26.59-.58v-30.13c0-.32-.26-.58-.59-.58Z"/>
    <path class="st3" d="M66.72,76.57h-2.17c-.32,0-.59.26-.59.58v30.13c0,.32.26.58.59.58h2.17c.32,0,.59-.26.59-.58v-30.13c0-.32-.26-.58-.59-.58Z"/>
    <path class="st3" d="M114.5,76.57h-2.17c-.32,0-.59.26-.59.58v30.13c0,.32.26.58.59.58h2.17c.32,0,.59-.26.59-.58v-30.13c0-.32-.26-.58-.59-.58Z"/>
    <path class="st3" d="M122.3,76.57h-2.17c-.32,0-.59.26-.59.58v30.13c0,.32.26.58.59.58h2.17c.32,0,.59-.26.59-.58v-30.13c0-.32-.26-.58-.59-.58Z"/>
    <path class="st3" d="M130.09,76.57h-2.17c-.32,0-.59.26-.59.58v30.13c0,.32.26.58.59.58h2.17c.32,0,.59-.26.59-.58v-30.13c0-.32-.26-.58-.59-.58Z"/>
    <path class="st3" d="M137.89,76.57h-2.17c-.32,0-.59.26-.59.58v30.13c0,.32.26.58.59.58h2.17c.32,0,.59-.26.59-.58v-30.13c0-.32-.26-.58-.59-.58Z"/>
    <path class="st3" d="M145.69,76.57h-2.17c-.32,0-.59.26-.59.58v30.13c0,.32.26.58.59.58h2.17c.32,0,.59-.26.59-.58v-30.13c0-.32-.26-.58-.59-.58Z"/>
    <path class="st3" d="M153.48,76.57h-2.17c-.32,0-.59.26-.59.58v30.13c0,.32.26.58.59.58h2.17c.32,0,.59-.26.59-.58v-30.13c0-.32-.26-.58-.59-.58Z"/>
    <path class="st3" d="M161.28,76.57h-2.17c-.32,0-.59.26-.59.58v30.13c0,.32.26.58.59.58h2.17c.32,0,.59-.26.59-.58v-30.13c0-.32-.26-.58-.59-.58Z"/>
    <path class="st3" d="M169.07,76.57h-2.17c-.32,0-.59.26-.59.58v30.13c0,.32.26.58.59.58h2.17c.32,0,.59-.26.59-.58v-30.13c0-.32-.26-.58-.59-.58Z"/>
    <path d="M78.66,96.96v-9.5h2.54l3.24,7.1,3.18-7.1h2.44v9.5h-2.11v-5.53l-2.42,5.53h-2.25l-2.46-5.49v5.49h-2.18Z"/>
    <path d="M93.49,97h-2.49l4.25-9.52h3.06l4.28,9.52h-2.49l-.84-1.9h-4.99l-.77,1.9ZM98.48,93.29l-1.76-4.03-1.66,4.03h3.42Z"/>
    <path d="M103.58,96.96v-9.5h9.16v1.89h-6.94v1.89h5.95v1.86h-5.95v1.97h6.96v1.89h-9.18Z"/>
    <path d="M114.54,97v-9.51h7.67c.22-.02.44,0,.64.08.2.07.39.19.54.34.15.15.27.34.35.54.07.2.1.42.08.63v3.2c0,.73-.65,1.4-1.92,1.4h-.22l2.23,3.31h-2.49l-2.11-3.25h-2.49v3.25h-2.27ZM116.78,91.85h4.82v-2.47h-4.82v2.47Z"/>
    <path d="M127.86,97h-.76c-.19.02-.39,0-.58-.05-.19-.06-.35-.16-.5-.3-.14-.13-.25-.3-.32-.48-.07-.18-.1-.38-.08-.57v-1.24h2.23v.73h4.73v-1.94h-5.43c-.19.01-.38-.01-.56-.08-.18-.06-.35-.16-.49-.29-.14-.13-.25-.29-.33-.46-.07-.17-.11-.36-.11-.55v-2.82c0-.19.03-.39.11-.57.07-.18.18-.34.33-.48.14-.14.31-.24.49-.31.18-.07.38-.1.58-.1h6.24c.2,0,.39.04.57.11.18.08.34.19.48.33.13.14.24.31.3.5.06.19.09.38.07.58v1.13h-2.22v-.74h-4.73v1.87h5.41c.2,0,.41.02.6.1.19.07.36.19.51.33.15.14.26.32.33.51.07.19.11.39.09.6v2.72c.02.2,0,.4-.07.59-.07.19-.18.36-.32.5s-.31.25-.5.32c-.19.07-.39.09-.59.07h-5.49Z"/>
    <path d="M136.94,96.97v-9.51h2.27v3.8l4.33-3.8h3.08l-5.16,4.41,5.35,5.1h-3.19l-4.4-4.33v4.33h-2.27Z"/>
    <path class="st5" d="M199.57,83.12h-6.21c-.54,0-.99.44-.99.98v6.6c0,.54.44.98.99.98h6.21c.54,0,.99-.44.99-.98v-6.6c0-.54-.44-.98-.99-.98Z"/>
    <path class="st12" d="M70.33,127.77c0,1.91-.57,3.79-1.65,5.38-1.07,1.59-2.6,2.83-4.38,3.57-1.78.73-3.75.92-5.64.55-1.89-.37-3.64-1.3-5-2.65-1.37-1.35-2.3-3.08-2.67-4.96-.38-1.88-.18-3.83.56-5.6.74-1.77,1.99-3.28,3.6-4.35,1.61-1.06,3.49-1.63,5.43-1.63,2.59,0,5.07,1.02,6.9,2.84,1.83,1.82,2.86,4.28,2.86,6.84Z"/>
    <path class="st12" d="M151.61,127.77c0,1.92-.57,3.8-1.64,5.39-1.07,1.6-2.6,2.84-4.39,3.58-1.79.74-3.76.93-5.65.55-1.9-.37-3.64-1.3-5.01-2.65-1.37-1.36-2.3-3.09-2.68-4.97-.38-1.88-.18-3.83.56-5.6.74-1.77,2-3.29,3.61-4.35s3.5-1.63,5.44-1.63c2.59,0,5.07,1.02,6.9,2.84,1.83,1.82,2.86,4.28,2.86,6.84Z"/>
    <path class="st13" d="M147.34,127.77c0,1.08-.32,2.14-.93,3.04-.61.9-1.47,1.6-2.48,2.01-1.01.41-2.12.52-3.19.31-1.07-.21-2.05-.73-2.82-1.5-.77-.77-1.3-1.74-1.51-2.8-.21-1.06-.1-2.16.32-3.16.42-1,1.13-1.85,2.04-2.45.91-.6,1.98-.92,3.07-.91.72,0,1.44.14,2.11.41.67.27,1.28.68,1.79,1.19.51.51.92,1.11,1.19,1.78.27.66.41,1.38.41,2.09Z"/>
    <path class="st13" d="M66.07,127.77c0,1.08-.32,2.14-.93,3.04-.61.9-1.47,1.6-2.48,2.01-1.01.41-2.12.52-3.19.31-1.07-.21-2.05-.73-2.82-1.5-.77-.77-1.3-1.74-1.51-2.8-.21-1.06-.1-2.16.32-3.16.42-1,1.13-1.85,2.04-2.45.91-.6,1.98-.92,3.07-.91.72,0,1.44.14,2.11.41.67.27,1.28.68,1.79,1.19.51.51.92,1.11,1.19,1.78.27.66.41,1.38.41,2.09Z"/>
    <path class="st12" d="M47.33,127.77c0,1.91-.57,3.79-1.65,5.38-1.07,1.59-2.6,2.83-4.38,3.57-1.78.73-3.75.92-5.64.55-1.89-.37-3.64-1.3-5-2.65-1.37-1.35-2.3-3.08-2.67-4.96-.38-1.88-.18-3.83.56-5.6.74-1.77,1.99-3.28,3.6-4.35,1.61-1.06,3.49-1.63,5.43-1.63,2.59,0,5.07,1.02,6.9,2.84,1.83,1.82,2.86,4.28,2.86,6.84Z"/>
    <path class="st13" d="M43.07,127.77c0,1.08-.32,2.14-.93,3.04-.61.9-1.47,1.6-2.48,2.01-1.01.41-2.12.52-3.19.31-1.07-.21-2.05-.73-2.82-1.5-.77-.77-1.3-1.74-1.51-2.8-.21-1.06-.1-2.16.32-3.16.42-1,1.13-1.85,2.04-2.45.91-.6,1.98-.92,3.07-.91.72,0,1.44.14,2.11.41.67.27,1.28.68,1.79,1.19.51.51.92,1.11,1.19,1.78.27.66.41,1.38.41,2.09Z"/>
    <path class="st12" d="M174.01,127.77c0,1.92-.57,3.79-1.64,5.39-1.07,1.6-2.6,2.84-4.39,3.58-1.79.74-3.75.93-5.65.56-1.9-.37-3.64-1.3-5.01-2.65-1.37-1.36-2.3-3.08-2.68-4.96-.38-1.88-.19-3.83.55-5.6s1.99-3.29,3.6-4.35c1.61-1.07,3.5-1.63,5.43-1.63,2.59,0,5.08,1.02,6.91,2.84,1.83,1.82,2.87,4.28,2.87,6.85Z"/>
    <path class="st13" d="M169.75,127.77c0,1.08-.32,2.14-.93,3.04-.61.9-1.47,1.6-2.47,2.01s-2.12.52-3.19.31c-1.07-.21-2.05-.73-2.82-1.5-.77-.76-1.3-1.74-1.51-2.8-.21-1.06-.1-2.16.31-3.16.42-1,1.12-1.85,2.03-2.45.91-.6,1.97-.92,3.06-.92.72,0,1.44.14,2.11.41.67.27,1.28.68,1.79,1.18.51.51.92,1.11,1.19,1.77.28.66.42,1.38.42,2.09Z"/>
    <path class="st12" d="M220.66,127.77c0,1.91-.57,3.79-1.65,5.38-1.07,1.59-2.6,2.83-4.38,3.57-1.78.73-3.75.92-5.64.55-1.89-.37-3.63-1.3-5-2.65-1.37-1.35-2.3-3.08-2.67-4.96-.38-1.88-.18-3.83.56-5.6.74-1.77,1.99-3.28,3.6-4.35,1.61-1.06,3.49-1.63,5.43-1.63,2.59,0,5.07,1.02,6.9,2.84,1.83,1.82,2.86,4.28,2.86,6.84Z"/>
    <path class="st13" d="M216.4,127.77c0,1.08-.32,2.14-.93,3.04-.61.9-1.47,1.6-2.47,2.01-1.01.41-2.12.52-3.19.31s-2.05-.73-2.82-1.5c-.77-.76-1.3-1.74-1.51-2.8-.21-1.06-.1-2.16.31-3.16.42-1,1.12-1.85,2.03-2.45.91-.6,1.97-.92,3.06-.92.72,0,1.44.14,2.11.41.67.27,1.28.68,1.79,1.18.51.51.92,1.11,1.19,1.77s.42,1.38.42,2.09Z"/>
    <path class="st5" d="M223.82,104.29h-17.86c-.31,0-.61-.12-.83-.34-.22-.22-.34-.51-.34-.82v-18.85c0-.31.12-.6.34-.82.22-.22.52-.34.83-.34h10.55c.22,0,.44.06.63.18.19.12.34.29.43.49l7.23,15.22c.07.15.11.32.11.48v3.69c-.01.29-.13.56-.33.77s-.48.33-.76.35Z"/>
    <path class="st4" d="M190.47,125.53v2.79c0,.25-.1.49-.27.67-.17.18-.41.28-.66.28h-6.76c-.25,0-.48-.1-.66-.28-.17-.18-.27-.42-.27-.67v-60.87c0-.54.57-.87,1.03-.6l3.31,1.98c.21.13.34.35.34.6v55.14h3.02c.25,0,.48.1.66.28.17.18.27.42.27.67Z"/>
    <path class="st6" d="M54.81,58.58h-21.81c0-1.05.53-2.03,2.12-2.03h.78c0-1.05,1.11-2.33,3.94-2.33h2.93c0-1.39.71-2.4,3.65-2.4,4.05,0,4.16,1.94,4.16,4.06,4.28,0,4.22,2.7,4.22,2.7Z"/>
  </g>
</svg>